<svg xmlns="http://www.w3.org/2000/svg" xmlns:xlink="http://www.w3.org/1999/xlink" width="500" zoomAndPan="magnify" viewBox="0 0 375 374.999991" height="500" preserveAspectRatio="xMidYMid meet" version="1.0"><defs><g/><clipPath id="3cbec2a0d0"><path d="M 30.078125 47 L 345.078125 47 L 345.078125 281 L 30.078125 281 Z M 30.078125 47 " clip-rule="nonzero"/></clipPath><clipPath id="b74a3a1282"><path d="M 68.679688 48.777344 L 91.992188 86.945312 L 92.339844 87.289062 C 124.289062 107.324219 155.03125 127.183594 186.546875 147.910156 L 187.496094 146.785156 L 137.414062 92.816406 L 137.328125 92.730469 L 96.3125 60.609375 L 96.136719 60.523438 L 69.714844 47.65625 Z M 42.601562 208.183594 L 53.394531 208.960938 L 40.699219 192.464844 L 39.234375 193.070312 L 40.527344 203.949219 C 40.527344 204.210938 40.441406 204.554688 40.097656 204.640625 L 30.078125 209.390625 L 30.511719 210.773438 L 42.253906 208.269531 C 42.339844 208.269531 42.429688 208.269531 42.515625 208.269531 Z M 56.503906 220.53125 L 41.566406 224.589844 L 40.960938 225.019531 L 35.605469 233.050781 L 36.554688 234.347656 L 47.953125 230.980469 L 48.386719 230.71875 L 57.367188 221.910156 L 56.589844 220.617188 Z M 80.164062 209.824219 L 59.613281 206.28125 L 58.921875 207.664062 L 67.210938 214.746094 C 67.46875 214.917969 67.554688 215.261719 67.46875 215.609375 L 63.324219 225.882812 L 64.621094 226.574219 L 71.613281 216.730469 C 71.613281 216.644531 71.699219 216.644531 71.789062 216.558594 L 80.25 209.824219 Z M 99.074219 196.265625 L 52.53125 191.085938 L 52.1875 192.464844 L 82.582031 202.742188 L 83.1875 202.742188 L 99.160156 197.734375 L 98.988281 196.265625 Z M 105.894531 192.726562 L 120.402344 194.539062 C 125.152344 189.53125 128.691406 186.074219 133.789062 181.414062 L 133.097656 180.03125 L 117.207031 182.363281 L 116.863281 182.449219 L 108.746094 186.851562 L 108.3125 187.285156 L 105.894531 192.640625 Z M 82.753906 222.6875 L 101.664062 217.074219 L 102.097656 216.816406 L 116.949219 202.222656 L 116.171875 200.929688 L 91.390625 207.664062 L 90.785156 208.09375 L 81.804688 221.480469 L 82.753906 222.773438 Z M 55.726562 242.808594 L 63.671875 243.84375 C 66 241.339844 67.816406 239.613281 70.320312 237.28125 L 69.628906 235.902344 L 61.855469 237.023438 L 61.511719 237.109375 L 57.453125 239.269531 L 57.019531 239.699219 L 55.640625 242.722656 Z M 71.875 252.394531 L 47.4375 249.628906 L 47.089844 251.011719 L 63.066406 256.453125 L 63.671875 256.453125 L 71.960938 253.863281 L 71.789062 252.394531 Z M 72.566406 244.191406 L 89.921875 239.269531 L 90.4375 238.921875 L 96.136719 231.667969 L 95.1875 230.546875 L 72.046875 242.894531 Z M 110.039062 252.394531 L 107.796875 253.601562 C 107.710938 253.601562 107.625 253.6875 107.535156 253.6875 L 88.886719 255.589844 L 88.28125 255.933594 L 67.210938 278.730469 L 68.074219 280.027344 L 103.566406 266.46875 L 103.910156 266.296875 L 128.691406 244.449219 L 127.828125 243.242188 L 110.90625 252.046875 C 110.730469 252.132812 110.558594 252.132812 110.386719 252.132812 C 110.300781 252.308594 110.214844 252.480469 110.039062 252.566406 Z M 110.214844 250.667969 L 138.710938 232.621094 L 138.105469 231.238281 L 115.480469 237.28125 L 115.308594 237.28125 L 99.765625 238.144531 L 89.230469 252.480469 L 109.265625 251.097656 L 109.4375 251.011719 C 109.609375 250.925781 109.78125 250.925781 109.953125 251.011719 C 110.039062 250.839844 110.128906 250.753906 110.214844 250.667969 Z M 188.101562 231.066406 L 142.679688 242.464844 L 142.855469 243.84375 L 174.890625 242.894531 L 175.496094 242.722656 L 188.707031 232.445312 L 188.015625 231.066406 Z M 184.648438 195.402344 L 160.382812 192.550781 L 160.210938 192.550781 L 144.925781 187.199219 L 106.671875 223.207031 L 107.363281 224.589844 L 143.199219 216.210938 L 143.371094 216.125 L 184.90625 196.957031 Z M 163.058594 185.902344 L 185.511719 189.445312 L 186.03125 189.445312 L 198.550781 185.386719 L 198.464844 183.832031 L 152.007812 176.144531 L 151.402344 177.527344 L 162.714844 185.644531 L 163.148438 185.816406 Z M 194.058594 220.617188 L 195.011719 197.992188 L 151.835938 218.628906 L 152.007812 220.183594 L 173.25 225.28125 L 173.683594 225.28125 Z M 214.351562 206.972656 L 219.964844 186.941406 L 218.671875 186.164062 L 217.289062 187.542969 C 217.203125 187.628906 217.117188 187.628906 217.117188 187.714844 C 217.117188 187.804688 217.03125 187.890625 216.945312 187.890625 L 200.625 204.382812 L 200.363281 204.988281 L 199.242188 221.132812 L 200.710938 221.738281 L 214.265625 207.40625 L 214.527344 206.972656 Z M 245.699219 178.734375 L 229.464844 191.171875 L 229.117188 191.601562 L 219.449219 214.832031 C 219.363281 214.917969 219.363281 215.003906 219.273438 215.089844 L 189.828125 239.09375 L 190.605469 240.390625 L 222.125 227.351562 L 222.46875 227.09375 L 248.894531 198.335938 Z M 248.632812 158.355469 L 243.886719 138.238281 L 242.332031 138.152344 L 224.972656 185.386719 L 226.183594 186.335938 L 244.402344 173.554688 L 244.75 173.035156 L 248.632812 158.789062 L 248.632812 158.269531 Z M 288.097656 134.523438 L 345.175781 113.542969 L 344.828125 112.160156 L 283.605469 123.988281 Z M 293.277344 138.238281 L 263.3125 158.097656 L 262.363281 189.355469 L 263.832031 189.703125 L 274.972656 162.242188 C 274.972656 162.15625 275.058594 162.070312 275.058594 162.070312 L 294.226562 139.445312 L 293.277344 138.324219 Z M 260.984375 132.882812 L 257.441406 138.667969 C 257.355469 138.84375 257.269531 138.929688 257.097656 138.929688 L 253.644531 140.222656 C 253.382812 140.308594 253.039062 140.308594 252.867188 140.050781 C 252.605469 139.792969 252.605469 139.359375 252.867188 139.015625 C 253.210938 138.667969 253.554688 138.152344 253.816406 137.632812 C 253.988281 137.113281 254.160156 136.597656 254.160156 135.992188 C 254.160156 135.386719 254.074219 134.871094 253.816406 134.351562 C 253.644531 133.832031 253.296875 133.402344 252.867188 132.96875 C 252.519531 132.625 252.003906 132.277344 251.484375 132.019531 C 250.964844 131.847656 250.449219 131.675781 249.84375 131.675781 C 249.238281 131.675781 248.722656 131.761719 248.203125 132.019531 C 247.683594 132.191406 247.253906 132.539062 246.820312 132.96875 C 246.476562 133.316406 246.128906 133.832031 245.871094 134.351562 C 245.699219 134.871094 245.527344 135.386719 245.527344 135.992188 C 245.527344 136.597656 245.613281 137.113281 245.871094 137.632812 C 246.042969 138.152344 246.390625 138.582031 246.820312 139.015625 C 247.167969 139.359375 247.597656 139.707031 248.03125 139.878906 C 248.460938 140.050781 248.980469 140.222656 249.496094 140.222656 C 249.757812 140.222656 250.015625 140.394531 250.101562 140.65625 C 250.273438 141 250.015625 141.433594 249.671875 141.605469 L 248.980469 141.863281 L 253.382812 156.714844 C 260.636719 150.066406 267.457031 143.332031 274.539062 136.425781 L 277.128906 133.832031 L 276.527344 132.367188 L 260.894531 132.710938 Z M 232.488281 117.082031 L 255.195312 123.472656 L 255.628906 123.472656 L 277.992188 119.671875 L 278.082031 118.117188 L 250.535156 111.382812 L 250.101562 111.382812 L 232.660156 115.527344 L 232.660156 117.082031 Z M 209.257812 146.441406 L 241.898438 126.40625 L 226.011719 121.570312 L 214.785156 131.414062 L 214.527344 131.761719 L 208.050781 145.316406 L 209.171875 146.355469 Z M 212.109375 155.074219 C 211.847656 155.25 211.503906 155.25 211.246094 155.074219 L 186.808594 136.511719 L 185.769531 137.546875 L 206.234375 162.15625 C 206.234375 162.242188 206.324219 162.242188 206.324219 162.328125 L 216.511719 185.816406 L 238.1875 138.84375 L 236.976562 137.804688 L 212.023438 154.988281 Z M 132.75 80.125 C 155.71875 100.503906 177.828125 120.015625 203.042969 138.582031 L 204.164062 137.546875 L 194.664062 123.296875 L 194.40625 123.039062 L 115.914062 63.457031 L 115.050781 64.492188 C 120.921875 69.675781 126.878906 74.941406 132.75 80.125 Z M 202.4375 177.613281 L 130.9375 144.28125 L 129.902344 145.40625 L 144.582031 168.804688 L 202.003906 178.910156 L 202.4375 177.527344 Z M 131.886719 117.511719 L 102.527344 103.957031 L 101.578125 105.164062 L 123.511719 134.871094 L 123.945312 135.214844 L 201.398438 170.015625 L 202.089844 168.804688 L 132.058594 117.6875 L 131.886719 117.597656 Z M 131.886719 117.511719 " clip-rule="evenodd"/></clipPath><linearGradient x1="38.593414" gradientTransform="matrix(8.635105, 0, 0, 8.635105, 30.079859, 47.655279)" y1="4.166741" x2="-1.274776" gradientUnits="userSpaceOnUse" y2="24.397879" id="a0a5a66b94"><stop stop-opacity="1" stop-color="rgb(100%, 87.098694%, 34.899902%)" offset="0"/><stop stop-opacity="1" stop-color="rgb(100%, 87.098694%, 34.899902%)" offset="0.125"/><stop stop-opacity="1" stop-color="rgb(100%, 87.098694%, 34.899902%)" offset="0.1875"/><stop stop-opacity="1" stop-color="rgb(100%, 87.098694%, 34.899902%)" offset="0.21875"/><stop stop-opacity="1" stop-color="rgb(100%, 87.098694%, 34.899902%)" offset="0.234375"/><stop stop-opacity="1" stop-color="rgb(100%, 87.016296%, 34.870911%)" offset="0.242187"/><stop stop-opacity="1" stop-color="rgb(100%, 86.44104%, 34.67865%)" offset="0.246094"/><stop stop-opacity="1" stop-color="rgb(100%, 85.949707%, 34.513855%)" offset="0.25"/><stop stop-opacity="1" stop-color="rgb(100%, 85.456848%, 34.34906%)" offset="0.253906"/><stop stop-opacity="1" stop-color="rgb(100%, 84.965515%, 34.184265%)" offset="0.257812"/><stop stop-opacity="1" stop-color="rgb(100%, 84.472656%, 34.01947%)" offset="0.261719"/><stop stop-opacity="1" stop-color="rgb(100%, 83.979797%, 33.854675%)" offset="0.265625"/><stop stop-opacity="1" stop-color="rgb(100%, 83.486938%, 33.68988%)" offset="0.269531"/><stop stop-opacity="1" stop-color="rgb(100%, 82.995605%, 33.525085%)" offset="0.273438"/><stop stop-opacity="1" stop-color="rgb(100%, 82.502747%, 33.358765%)" offset="0.277344"/><stop stop-opacity="1" stop-color="rgb(100%, 82.011414%, 33.19397%)" offset="0.28125"/><stop stop-opacity="1" stop-color="rgb(100%, 81.518555%, 33.029175%)" offset="0.285156"/><stop stop-opacity="1" stop-color="rgb(100%, 81.025696%, 32.86438%)" offset="0.289062"/><stop stop-opacity="1" stop-color="rgb(100%, 80.532837%, 32.699585%)" offset="0.292969"/><stop stop-opacity="1" stop-color="rgb(100%, 80.041504%, 32.53479%)" offset="0.296875"/><stop stop-opacity="1" stop-color="rgb(100%, 79.548645%, 32.369995%)" offset="0.300781"/><stop stop-opacity="1" stop-color="rgb(100%, 79.057312%, 32.2052%)" offset="0.304687"/><stop stop-opacity="1" stop-color="rgb(100%, 78.564453%, 32.038879%)" offset="0.308594"/><stop stop-opacity="1" stop-color="rgb(100%, 78.071594%, 31.874084%)" offset="0.3125"/><stop stop-opacity="1" stop-color="rgb(100%, 77.578735%, 31.70929%)" offset="0.316406"/><stop stop-opacity="1" stop-color="rgb(100%, 77.087402%, 31.544495%)" offset="0.320312"/><stop stop-opacity="1" stop-color="rgb(100%, 76.594543%, 31.3797%)" offset="0.324219"/><stop stop-opacity="1" stop-color="rgb(100%, 76.10321%, 31.214905%)" offset="0.328125"/><stop stop-opacity="1" stop-color="rgb(100%, 75.610352%, 31.05011%)" offset="0.332031"/><stop stop-opacity="1" stop-color="rgb(100%, 75.117493%, 30.885315%)" offset="0.335937"/><stop stop-opacity="1" stop-color="rgb(100%, 74.624634%, 30.72052%)" offset="0.339844"/><stop stop-opacity="1" stop-color="rgb(100%, 74.133301%, 30.555725%)" offset="0.34375"/><stop stop-opacity="1" stop-color="rgb(100%, 73.640442%, 30.389404%)" offset="0.347656"/><stop stop-opacity="1" stop-color="rgb(100%, 73.149109%, 30.224609%)" offset="0.351562"/><stop stop-opacity="1" stop-color="rgb(100%, 72.65625%, 30.059814%)" offset="0.355469"/><stop stop-opacity="1" stop-color="rgb(100%, 72.163391%, 29.89502%)" offset="0.359375"/><stop stop-opacity="1" stop-color="rgb(100%, 71.670532%, 29.730225%)" offset="0.363281"/><stop stop-opacity="1" stop-color="rgb(100%, 71.179199%, 29.56543%)" offset="0.367188"/><stop stop-opacity="1" stop-color="rgb(100%, 70.68634%, 29.400635%)" offset="0.371094"/><stop stop-opacity="1" stop-color="rgb(100%, 70.193481%, 29.23584%)" offset="0.375"/><stop stop-opacity="1" stop-color="rgb(100%, 69.700623%, 29.071045%)" offset="0.378906"/><stop stop-opacity="1" stop-color="rgb(100%, 69.20929%, 28.90625%)" offset="0.382812"/><stop stop-opacity="1" stop-color="rgb(100%, 68.716431%, 28.739929%)" offset="0.386719"/><stop stop-opacity="1" stop-color="rgb(100%, 68.225098%, 28.575134%)" offset="0.390625"/><stop stop-opacity="1" stop-color="rgb(100%, 67.732239%, 28.410339%)" offset="0.394531"/><stop stop-opacity="1" stop-color="rgb(100%, 67.23938%, 28.245544%)" offset="0.398437"/><stop stop-opacity="1" stop-color="rgb(100%, 66.746521%, 28.08075%)" offset="0.402344"/><stop stop-opacity="1" stop-color="rgb(100%, 66.255188%, 27.915955%)" offset="0.40625"/><stop stop-opacity="1" stop-color="rgb(100%, 65.762329%, 27.75116%)" offset="0.410156"/><stop stop-opacity="1" stop-color="rgb(100%, 65.270996%, 27.586365%)" offset="0.414062"/><stop stop-opacity="1" stop-color="rgb(100%, 64.778137%, 27.42157%)" offset="0.417969"/><stop stop-opacity="1" stop-color="rgb(100%, 64.285278%, 27.256775%)" offset="0.421875"/><stop stop-opacity="1" stop-color="rgb(100%, 63.792419%, 27.090454%)" offset="0.425781"/><stop stop-opacity="1" stop-color="rgb(100%, 63.301086%, 26.925659%)" offset="0.429688"/><stop stop-opacity="1" stop-color="rgb(100%, 62.808228%, 26.760864%)" offset="0.433594"/><stop stop-opacity="1" stop-color="rgb(100%, 62.316895%, 26.596069%)" offset="0.4375"/><stop stop-opacity="1" stop-color="rgb(100%, 61.824036%, 26.431274%)" offset="0.441406"/><stop stop-opacity="1" stop-color="rgb(100%, 61.331177%, 26.266479%)" offset="0.445312"/><stop stop-opacity="1" stop-color="rgb(100%, 60.838318%, 26.101685%)" offset="0.449219"/><stop stop-opacity="1" stop-color="rgb(100%, 60.346985%, 25.93689%)" offset="0.453125"/><stop stop-opacity="1" stop-color="rgb(100%, 59.854126%, 25.770569%)" offset="0.457031"/><stop stop-opacity="1" stop-color="rgb(100%, 59.362793%, 25.605774%)" offset="0.460938"/><stop stop-opacity="1" stop-color="rgb(100%, 58.869934%, 25.440979%)" offset="0.464844"/><stop stop-opacity="1" stop-color="rgb(100%, 58.377075%, 25.276184%)" offset="0.46875"/><stop stop-opacity="1" stop-color="rgb(100%, 57.884216%, 25.111389%)" offset="0.472656"/><stop stop-opacity="1" stop-color="rgb(100%, 57.392883%, 24.946594%)" offset="0.476562"/><stop stop-opacity="1" stop-color="rgb(100%, 56.900024%, 24.781799%)" offset="0.480469"/><stop stop-opacity="1" stop-color="rgb(100%, 56.408691%, 24.617004%)" offset="0.484375"/><stop stop-opacity="1" stop-color="rgb(100%, 55.915833%, 24.452209%)" offset="0.488281"/><stop stop-opacity="1" stop-color="rgb(100%, 55.422974%, 24.287415%)" offset="0.492187"/><stop stop-opacity="1" stop-color="rgb(100%, 54.930115%, 24.121094%)" offset="0.496094"/><stop stop-opacity="1" stop-color="rgb(100%, 54.438782%, 23.956299%)" offset="0.5"/><stop stop-opacity="1" stop-color="rgb(100%, 53.945923%, 23.791504%)" offset="0.503906"/><stop stop-opacity="1" stop-color="rgb(100%, 53.45459%, 23.626709%)" offset="0.507812"/><stop stop-opacity="1" stop-color="rgb(100%, 52.961731%, 23.461914%)" offset="0.511719"/><stop stop-opacity="1" stop-color="rgb(100%, 52.468872%, 23.297119%)" offset="0.515625"/><stop stop-opacity="1" stop-color="rgb(100%, 51.976013%, 23.132324%)" offset="0.519531"/><stop stop-opacity="1" stop-color="rgb(100%, 51.48468%, 22.967529%)" offset="0.523438"/><stop stop-opacity="1" stop-color="rgb(100%, 50.991821%, 22.802734%)" offset="0.527344"/><stop stop-opacity="1" stop-color="rgb(100%, 50.500488%, 22.637939%)" offset="0.53125"/><stop stop-opacity="1" stop-color="rgb(100%, 50.007629%, 22.471619%)" offset="0.535156"/><stop stop-opacity="1" stop-color="rgb(100%, 49.514771%, 22.306824%)" offset="0.539062"/><stop stop-opacity="1" stop-color="rgb(100%, 49.021912%, 22.142029%)" offset="0.542969"/><stop stop-opacity="1" stop-color="rgb(100%, 48.530579%, 21.977234%)" offset="0.546875"/><stop stop-opacity="1" stop-color="rgb(100%, 48.03772%, 21.812439%)" offset="0.550781"/><stop stop-opacity="1" stop-color="rgb(100%, 47.546387%, 21.647644%)" offset="0.554688"/><stop stop-opacity="1" stop-color="rgb(100%, 47.053528%, 21.482849%)" offset="0.558594"/><stop stop-opacity="1" stop-color="rgb(100%, 46.560669%, 21.318054%)" offset="0.5625"/><stop stop-opacity="1" stop-color="rgb(100%, 46.06781%, 21.153259%)" offset="0.566406"/><stop stop-opacity="1" stop-color="rgb(100%, 45.576477%, 20.988464%)" offset="0.570312"/><stop stop-opacity="1" stop-color="rgb(100%, 45.083618%, 20.822144%)" offset="0.574219"/><stop stop-opacity="1" stop-color="rgb(100%, 44.592285%, 20.657349%)" offset="0.578125"/><stop stop-opacity="1" stop-color="rgb(100%, 44.099426%, 20.492554%)" offset="0.582031"/><stop stop-opacity="1" stop-color="rgb(100%, 43.606567%, 20.327759%)" offset="0.585938"/><stop stop-opacity="1" stop-color="rgb(100%, 43.113708%, 20.162964%)" offset="0.589844"/><stop stop-opacity="1" stop-color="rgb(100%, 42.622375%, 19.998169%)" offset="0.59375"/><stop stop-opacity="1" stop-color="rgb(100%, 42.129517%, 19.833374%)" offset="0.597656"/><stop stop-opacity="1" stop-color="rgb(100%, 41.638184%, 19.668579%)" offset="0.601562"/><stop stop-opacity="1" stop-color="rgb(100%, 41.145325%, 19.502258%)" offset="0.605469"/><stop stop-opacity="1" stop-color="rgb(100%, 40.652466%, 19.337463%)" offset="0.609375"/><stop stop-opacity="1" stop-color="rgb(100%, 40.159607%, 19.172668%)" offset="0.613281"/><stop stop-opacity="1" stop-color="rgb(100%, 39.668274%, 19.007874%)" offset="0.617188"/><stop stop-opacity="1" stop-color="rgb(100%, 39.175415%, 18.843079%)" offset="0.621094"/><stop stop-opacity="1" stop-color="rgb(100%, 38.684082%, 18.678284%)" offset="0.625"/><stop stop-opacity="1" stop-color="rgb(100%, 38.191223%, 18.513489%)" offset="0.628906"/><stop stop-opacity="1" stop-color="rgb(100%, 37.698364%, 18.348694%)" offset="0.632812"/><stop stop-opacity="1" stop-color="rgb(100%, 37.205505%, 18.183899%)" offset="0.636719"/><stop stop-opacity="1" stop-color="rgb(100%, 36.714172%, 18.019104%)" offset="0.640625"/><stop stop-opacity="1" stop-color="rgb(100%, 36.221313%, 17.852783%)" offset="0.644531"/><stop stop-opacity="1" stop-color="rgb(100%, 35.72998%, 17.687988%)" offset="0.648438"/><stop stop-opacity="1" stop-color="rgb(100%, 35.237122%, 17.523193%)" offset="0.652344"/><stop stop-opacity="1" stop-color="rgb(100%, 34.744263%, 17.358398%)" offset="0.65625"/><stop stop-opacity="1" stop-color="rgb(100%, 34.251404%, 17.193604%)" offset="0.660156"/><stop stop-opacity="1" stop-color="rgb(100%, 33.760071%, 17.028809%)" offset="0.664062"/><stop stop-opacity="1" stop-color="rgb(100%, 33.267212%, 16.864014%)" offset="0.667969"/><stop stop-opacity="1" stop-color="rgb(100%, 32.775879%, 16.699219%)" offset="0.671875"/><stop stop-opacity="1" stop-color="rgb(100%, 32.28302%, 16.534424%)" offset="0.675781"/><stop stop-opacity="1" stop-color="rgb(100%, 31.790161%, 16.369629%)" offset="0.679688"/><stop stop-opacity="1" stop-color="rgb(100%, 31.297302%, 16.203308%)" offset="0.683594"/><stop stop-opacity="1" stop-color="rgb(100%, 30.805969%, 16.038513%)" offset="0.6875"/><stop stop-opacity="1" stop-color="rgb(100%, 30.31311%, 15.873718%)" offset="0.691406"/><stop stop-opacity="1" stop-color="rgb(100%, 29.820251%, 15.708923%)" offset="0.695312"/><stop stop-opacity="1" stop-color="rgb(100%, 29.327393%, 15.544128%)" offset="0.699219"/><stop stop-opacity="1" stop-color="rgb(100%, 28.83606%, 15.379333%)" offset="0.703125"/><stop stop-opacity="1" stop-color="rgb(100%, 28.343201%, 15.214539%)" offset="0.707031"/><stop stop-opacity="1" stop-color="rgb(100%, 27.851868%, 15.049744%)" offset="0.710938"/><stop stop-opacity="1" stop-color="rgb(100%, 27.359009%, 14.884949%)" offset="0.714844"/><stop stop-opacity="1" stop-color="rgb(100%, 26.86615%, 14.720154%)" offset="0.71875"/><stop stop-opacity="1" stop-color="rgb(100%, 26.373291%, 14.553833%)" offset="0.722656"/><stop stop-opacity="1" stop-color="rgb(100%, 25.881958%, 14.389038%)" offset="0.726562"/><stop stop-opacity="1" stop-color="rgb(100%, 25.389099%, 14.224243%)" offset="0.730469"/><stop stop-opacity="1" stop-color="rgb(100%, 24.897766%, 14.059448%)" offset="0.734375"/><stop stop-opacity="1" stop-color="rgb(100%, 24.404907%, 13.894653%)" offset="0.738281"/><stop stop-opacity="1" stop-color="rgb(100%, 23.912048%, 13.729858%)" offset="0.742188"/><stop stop-opacity="1" stop-color="rgb(100%, 23.419189%, 13.565063%)" offset="0.746094"/><stop stop-opacity="1" stop-color="rgb(100%, 22.927856%, 13.400269%)" offset="0.75"/><stop stop-opacity="1" stop-color="rgb(100%, 22.434998%, 13.235474%)" offset="0.753906"/><stop stop-opacity="1" stop-color="rgb(100%, 21.943665%, 13.070679%)" offset="0.757812"/><stop stop-opacity="1" stop-color="rgb(100%, 21.450806%, 12.904358%)" offset="0.761719"/><stop stop-opacity="1" stop-color="rgb(100%, 20.957947%, 12.739563%)" offset="0.765625"/><stop stop-opacity="1" stop-color="rgb(100%, 20.465088%, 12.574768%)" offset="0.769531"/><stop stop-opacity="1" stop-color="rgb(100%, 19.973755%, 12.409973%)" offset="0.773438"/><stop stop-opacity="1" stop-color="rgb(100%, 19.480896%, 12.245178%)" offset="0.777344"/><stop stop-opacity="1" stop-color="rgb(100%, 18.989563%, 12.080383%)" offset="0.78125"/><stop stop-opacity="1" stop-color="rgb(100%, 18.496704%, 11.915588%)" offset="0.785156"/><stop stop-opacity="1" stop-color="rgb(100%, 18.003845%, 11.750793%)" offset="0.789062"/><stop stop-opacity="1" stop-color="rgb(100%, 17.510986%, 11.584473%)" offset="0.792969"/><stop stop-opacity="1" stop-color="rgb(100%, 17.019653%, 11.419678%)" offset="0.796875"/><stop stop-opacity="1" stop-color="rgb(100%, 16.526794%, 11.254883%)" offset="0.800781"/><stop stop-opacity="1" stop-color="rgb(100%, 16.035461%, 11.090088%)" offset="0.804688"/><stop stop-opacity="1" stop-color="rgb(100%, 15.542603%, 10.925293%)" offset="0.808594"/><stop stop-opacity="1" stop-color="rgb(100%, 15.049744%, 10.760498%)" offset="0.8125"/><stop stop-opacity="1" stop-color="rgb(100%, 14.556885%, 10.595703%)" offset="0.816406"/><stop stop-opacity="1" stop-color="rgb(100%, 14.065552%, 10.430908%)" offset="0.820312"/><stop stop-opacity="1" stop-color="rgb(100%, 13.572693%, 10.266113%)" offset="0.824219"/><stop stop-opacity="1" stop-color="rgb(100%, 13.08136%, 10.101318%)" offset="0.828125"/><stop stop-opacity="1" stop-color="rgb(100%, 12.588501%, 9.934998%)" offset="0.832031"/><stop stop-opacity="1" stop-color="rgb(100%, 12.095642%, 9.770203%)" offset="0.835938"/><stop stop-opacity="1" stop-color="rgb(100%, 11.602783%, 9.605408%)" offset="0.839844"/><stop stop-opacity="1" stop-color="rgb(100%, 11.11145%, 9.440613%)" offset="0.84375"/><stop stop-opacity="1" stop-color="rgb(100%, 10.618591%, 9.275818%)" offset="0.847656"/><stop stop-opacity="1" stop-color="rgb(100%, 10.127258%, 9.111023%)" offset="0.851562"/><stop stop-opacity="1" stop-color="rgb(100%, 9.634399%, 8.946228%)" offset="0.855469"/><stop stop-opacity="1" stop-color="rgb(100%, 9.141541%, 8.781433%)" offset="0.859375"/><stop stop-opacity="1" stop-color="rgb(100%, 8.869934%, 8.68988%)" offset="0.863281"/><stop stop-opacity="1" stop-color="rgb(100%, 8.599854%, 8.599854%)" offset="0.867188"/><stop stop-opacity="1" stop-color="rgb(100%, 8.599854%, 8.599854%)" offset="0.875"/><stop stop-opacity="1" stop-color="rgb(100%, 8.599854%, 8.599854%)" offset="1"/></linearGradient></defs><g clip-path="url(#3cbec2a0d0)"><g clip-path="url(#b74a3a1282)"><path fill="url(#a0a5a66b94)" d="M 30.078125 47.65625 L 30.078125 280.027344 L 345.078125 280.027344 L 345.078125 47.65625 Z M 30.078125 47.65625 " fill-rule="nonzero"/></g></g><g fill="#d9d9d9" fill-opacity="1"><g transform="translate(115.422957, 311.787938)"><g><path d="M 1 -16.015625 L 5.359375 -16.015625 L 5.359375 0 L 1 0 Z M 1 -16.015625 "/></g></g></g><g fill="#d9d9d9" fill-opacity="1"><g transform="translate(125.122572, 311.787938)"><g><path d="M 4.890625 0 L 1 0 L 1 -16.015625 L 5.765625 -16.015625 L 8.359375 -7.453125 L 10.953125 -16.015625 L 15.703125 -16.015625 L 15.703125 0 L 11.84375 0 L 11.84375 -10.171875 L 9.84375 -3.46875 L 6.859375 -3.46875 L 4.890625 -10.125 Z M 4.890625 0 "/></g></g></g><g fill="#d9d9d9" fill-opacity="1"><g transform="translate(145.16981, 311.787938)"><g><path d="M 9.15625 0 L 8.65625 -2.390625 L 4.8125 -2.390625 L 4.296875 0 L 0 0 L 4.109375 -16.015625 L 9.421875 -16.015625 L 13.546875 0 Z M 5.484375 -5.484375 L 7.984375 -5.484375 L 6.765625 -11.25 Z M 5.484375 -5.484375 "/></g></g></g><g fill="#d9d9d9" fill-opacity="1"><g transform="translate(162.050429, 311.787938)"><g><path d="M 11.75 -10.53125 L 7.375 -10.53125 L 7.375 -12.59375 C 7.375 -12.957031 7.171875 -13.140625 6.765625 -13.140625 L 5.859375 -13.140625 C 5.441406 -13.140625 5.234375 -12.957031 5.234375 -12.59375 L 5.234375 -3.421875 C 5.234375 -3.054688 5.441406 -2.875 5.859375 -2.875 L 6.765625 -2.875 C 7.171875 -2.875 7.375 -3.054688 7.375 -3.421875 L 7.375 -6.078125 L 6.140625 -6.078125 L 6.140625 -8.859375 L 11.75 -8.859375 L 11.75 -3.09375 C 11.75 -1.03125 10.523438 0 8.078125 0 L 4.53125 0 C 2.09375 0 0.875 -1.03125 0.875 -3.09375 L 0.875 -12.921875 C 0.875 -14.984375 2.09375 -16.015625 4.53125 -16.015625 L 8.078125 -16.015625 C 10.523438 -16.015625 11.75 -14.984375 11.75 -12.921875 Z M 11.75 -10.53125 "/></g></g></g><g fill="#d9d9d9" fill-opacity="1"><g transform="translate(177.88382, 311.787938)"><g><path d="M 1 -16.015625 L 5.359375 -16.015625 L 5.359375 0 L 1 0 Z M 1 -16.015625 "/></g></g></g><g fill="#d9d9d9" fill-opacity="1"><g transform="translate(187.583438, 311.787938)"><g><path d="M 8.296875 -16.015625 L 12.296875 -16.015625 L 12.296875 0 L 8.546875 0 L 4.984375 -8.40625 L 4.984375 0 L 1 0 L 1 -16.015625 L 4.734375 -16.015625 L 8.296875 -7.453125 Z M 8.296875 -16.015625 "/></g></g></g><g fill="#d9d9d9" fill-opacity="1"><g transform="translate(204.214722, 311.787938)"><g><path d="M 9.15625 0 L 8.65625 -2.390625 L 4.8125 -2.390625 L 4.296875 0 L 0 0 L 4.109375 -16.015625 L 9.421875 -16.015625 L 13.546875 0 Z M 5.484375 -5.484375 L 7.984375 -5.484375 L 6.765625 -11.25 Z M 5.484375 -5.484375 "/></g></g></g><g fill="#d9d9d9" fill-opacity="1"><g transform="translate(221.095337, 311.787938)"><g><path d="M 10.640625 -16.015625 L 10.640625 -12.890625 L 7.5625 -12.890625 L 7.5625 0 L 3.1875 0 L 3.1875 -12.890625 L 0.125 -12.890625 L 0.125 -16.015625 Z M 10.640625 -16.015625 "/></g></g></g><g fill="#d9d9d9" fill-opacity="1"><g transform="translate(235.208272, 311.787938)"><g><path d="M 1 -16.015625 L 5.359375 -16.015625 L 5.359375 0 L 1 0 Z M 1 -16.015625 "/></g></g></g><g fill="#d9d9d9" fill-opacity="1"><g transform="translate(244.907884, 311.787938)"><g><path d="M 4.59375 -16.015625 L 8.28125 -16.015625 C 10.71875 -16.015625 11.9375 -14.984375 11.9375 -12.921875 L 11.9375 -3.09375 C 11.9375 -1.03125 10.71875 0 8.28125 0 L 4.59375 0 C 2.144531 0 0.921875 -1.03125 0.921875 -3.09375 L 0.921875 -12.921875 C 0.921875 -14.984375 2.144531 -16.015625 4.59375 -16.015625 Z M 7.578125 -3.671875 L 7.578125 -12.34375 C 7.578125 -12.707031 7.367188 -12.890625 6.953125 -12.890625 L 5.90625 -12.890625 C 5.488281 -12.890625 5.28125 -12.707031 5.28125 -12.34375 L 5.28125 -3.671875 C 5.28125 -3.296875 5.488281 -3.109375 5.90625 -3.109375 L 6.953125 -3.109375 C 7.367188 -3.109375 7.578125 -3.296875 7.578125 -3.671875 Z M 7.578125 -3.671875 "/></g></g></g><g fill="#d9d9d9" fill-opacity="1"><g transform="translate(261.115276, 311.787938)"><g><path d="M 8.296875 -16.015625 L 12.296875 -16.015625 L 12.296875 0 L 8.546875 0 L 4.984375 -8.40625 L 4.984375 0 L 1 0 L 1 -16.015625 L 4.734375 -16.015625 L 8.296875 -7.453125 Z M 8.296875 -16.015625 "/></g></g></g></svg>