<svg xmlns="http://www.w3.org/2000/svg" xmlns:xlink="http://www.w3.org/1999/xlink" width="500" zoomAndPan="magnify" viewBox="0 0 375 374.999991" height="500" preserveAspectRatio="xMidYMid meet" version="1.0"><defs><clipPath id="b1a1a9a00a"><path d="M 10.980469 57 L 364.230469 57 L 364.230469 318 L 10.980469 318 Z M 10.980469 57 " clip-rule="nonzero"/></clipPath><clipPath id="65d95136db"><path d="M 54.261719 58.476562 L 80.40625 101.273438 L 80.792969 101.660156 C 116.617188 124.125 151.089844 146.394531 186.429688 169.632812 L 187.496094 168.375 L 131.335938 107.859375 L 131.238281 107.761719 L 85.246094 71.742188 L 85.054688 71.644531 L 55.425781 57.21875 Z M 25.023438 237.21875 L 37.125 238.089844 L 22.890625 219.597656 L 21.246094 220.273438 L 22.699219 232.472656 C 22.699219 232.765625 22.601562 233.152344 22.214844 233.25 L 10.980469 238.574219 L 11.464844 240.121094 L 24.632812 237.316406 C 24.730469 237.316406 24.828125 237.316406 24.925781 237.316406 Z M 40.609375 251.0625 L 23.859375 255.613281 L 23.183594 256.097656 L 17.179688 265.105469 L 18.242188 266.554688 L 31.023438 262.78125 L 31.507812 262.488281 L 41.578125 252.613281 L 40.707031 251.160156 Z M 67.140625 239.058594 L 44.097656 235.089844 L 43.320312 236.636719 L 52.617188 244.578125 C 52.90625 244.769531 53.003906 245.15625 52.90625 245.546875 L 48.261719 257.066406 L 49.710938 257.84375 L 57.554688 246.804688 C 57.554688 246.707031 57.652344 246.707031 57.75 246.609375 L 67.238281 239.058594 Z M 88.347656 223.855469 L 36.15625 218.046875 L 35.769531 219.597656 L 69.851562 231.117188 L 70.53125 231.117188 L 88.441406 225.503906 L 88.25 223.855469 Z M 95.996094 219.886719 L 112.261719 221.917969 C 117.585938 216.304688 121.558594 212.429688 127.269531 207.203125 L 126.496094 205.652344 L 108.679688 208.265625 L 108.292969 208.363281 L 99.191406 213.300781 L 98.707031 213.785156 L 95.996094 219.789062 Z M 70.046875 253.484375 L 91.25 247.191406 L 91.734375 246.902344 L 108.390625 230.539062 L 107.515625 229.085938 L 79.726562 236.636719 L 79.050781 237.121094 L 68.980469 252.128906 L 70.046875 253.582031 Z M 39.738281 276.046875 L 48.648438 277.207031 C 51.261719 274.398438 53.292969 272.464844 56.101562 269.847656 L 55.328125 268.300781 L 46.613281 269.558594 L 46.226562 269.65625 L 41.675781 272.074219 L 41.191406 272.558594 L 39.640625 275.949219 Z M 57.84375 286.792969 L 30.445312 283.695312 L 30.054688 285.242188 L 47.96875 291.34375 L 48.648438 291.34375 L 57.941406 288.4375 L 57.75 286.792969 Z M 58.621094 277.59375 L 78.082031 272.074219 L 78.664062 271.6875 L 85.054688 263.554688 L 83.988281 262.296875 L 58.039062 276.140625 Z M 100.644531 286.792969 L 98.125 288.148438 C 98.027344 288.148438 97.929688 288.246094 97.835938 288.246094 L 76.921875 290.375 L 76.242188 290.761719 L 52.617188 316.324219 L 53.585938 317.777344 L 93.378906 302.574219 L 93.769531 302.382812 L 121.558594 277.886719 L 120.589844 276.53125 L 101.609375 286.40625 C 101.417969 286.503906 101.222656 286.503906 101.03125 286.503906 C 100.933594 286.695312 100.835938 286.890625 100.644531 286.988281 Z M 100.835938 284.855469 L 132.789062 264.621094 L 132.109375 263.070312 L 106.742188 269.847656 L 106.550781 269.847656 L 89.121094 270.816406 L 77.308594 286.890625 L 99.769531 285.339844 L 99.964844 285.242188 C 100.160156 285.148438 100.351562 285.148438 100.546875 285.242188 C 100.644531 285.050781 100.738281 284.953125 100.835938 284.855469 Z M 188.171875 262.878906 L 137.242188 275.65625 L 137.4375 277.207031 L 173.359375 276.140625 L 174.035156 275.949219 L 188.851562 264.425781 L 188.078125 262.878906 Z M 184.300781 222.886719 L 157.09375 219.691406 L 156.898438 219.691406 L 139.761719 213.691406 L 96.867188 254.066406 L 97.640625 255.613281 L 137.824219 246.222656 L 138.015625 246.125 L 184.589844 224.632812 Z M 160.09375 212.238281 L 185.269531 216.207031 L 185.847656 216.207031 L 199.890625 211.65625 L 199.792969 209.914062 L 147.699219 201.296875 L 147.023438 202.84375 L 159.707031 211.945312 L 160.191406 212.140625 Z M 194.855469 251.160156 L 195.917969 225.792969 L 147.507812 248.933594 L 147.699219 250.675781 L 171.519531 256.390625 L 172.003906 256.390625 Z M 217.609375 235.863281 L 223.902344 213.398438 L 222.449219 212.527344 L 220.902344 214.078125 C 220.804688 214.171875 220.707031 214.171875 220.707031 214.269531 C 220.707031 214.367188 220.609375 214.464844 220.511719 214.464844 L 202.214844 232.957031 L 201.921875 233.636719 L 200.664062 251.742188 L 202.308594 252.417969 L 217.511719 236.347656 L 217.800781 235.863281 Z M 252.757812 204.199219 L 234.554688 218.144531 L 234.164062 218.628906 L 223.320312 244.671875 C 223.222656 244.769531 223.222656 244.867188 223.128906 244.964844 L 190.109375 271.882812 L 190.980469 273.335938 L 226.324219 258.714844 L 226.710938 258.421875 L 256.339844 226.179688 Z M 256.046875 181.351562 L 250.722656 158.789062 L 248.980469 158.691406 L 229.519531 211.65625 L 230.875 212.722656 L 251.304688 198.390625 L 251.691406 197.808594 L 256.046875 181.832031 L 256.046875 181.253906 Z M 300.296875 154.625 L 364.300781 131.097656 L 363.914062 129.546875 L 295.261719 142.8125 Z M 306.105469 158.789062 L 272.507812 181.058594 L 271.445312 216.109375 L 273.089844 216.496094 L 285.582031 185.707031 C 285.582031 185.609375 285.675781 185.511719 285.675781 185.511719 L 307.171875 160.144531 L 306.105469 158.886719 Z M 269.894531 152.785156 L 265.925781 159.273438 C 265.828125 159.46875 265.730469 159.5625 265.539062 159.5625 L 261.664062 161.015625 C 261.375 161.113281 260.988281 161.113281 260.792969 160.824219 C 260.503906 160.53125 260.503906 160.046875 260.792969 159.660156 C 261.179688 159.273438 261.566406 158.691406 261.859375 158.113281 C 262.050781 157.53125 262.246094 156.949219 262.246094 156.273438 C 262.246094 155.59375 262.148438 155.011719 261.859375 154.433594 C 261.664062 153.851562 261.277344 153.367188 260.792969 152.882812 C 260.40625 152.496094 259.824219 152.109375 259.242188 151.816406 C 258.664062 151.625 258.082031 151.429688 257.402344 151.429688 C 256.726562 151.429688 256.144531 151.527344 255.5625 151.816406 C 254.984375 152.011719 254.5 152.398438 254.015625 152.882812 C 253.628906 153.269531 253.242188 153.851562 252.949219 154.433594 C 252.757812 155.011719 252.5625 155.59375 252.5625 156.273438 C 252.5625 156.949219 252.660156 157.53125 252.949219 158.113281 C 253.144531 158.691406 253.53125 159.175781 254.015625 159.660156 C 254.402344 160.046875 254.886719 160.433594 255.371094 160.628906 C 255.855469 160.824219 256.4375 161.015625 257.015625 161.015625 C 257.308594 161.015625 257.597656 161.210938 257.695312 161.5 C 257.886719 161.886719 257.597656 162.371094 257.210938 162.566406 L 256.4375 162.855469 L 261.375 179.511719 C 269.507812 172.054688 277.15625 164.5 285.097656 156.757812 L 288 153.851562 L 287.324219 152.203125 L 269.796875 152.59375 Z M 237.941406 135.066406 L 263.40625 142.230469 L 263.890625 142.230469 L 288.96875 137.972656 L 289.066406 136.230469 L 258.179688 128.675781 L 257.695312 128.675781 L 238.136719 133.324219 L 238.136719 135.066406 Z M 211.894531 167.988281 L 248.496094 145.523438 L 230.679688 140.101562 L 218.09375 151.140625 L 217.800781 151.527344 L 210.539062 166.730469 L 211.800781 167.890625 Z M 215.089844 177.671875 C 214.800781 177.863281 214.414062 177.863281 214.121094 177.671875 L 186.722656 156.851562 L 185.558594 158.015625 L 208.507812 185.609375 C 208.507812 185.707031 208.605469 185.707031 208.605469 185.804688 L 220.027344 212.140625 L 244.332031 159.46875 L 242.976562 158.304688 L 214.996094 177.574219 Z M 126.109375 93.625 C 151.863281 116.476562 176.652344 138.359375 204.925781 159.175781 L 206.183594 158.015625 L 195.53125 142.039062 L 195.242188 141.746094 L 107.226562 74.9375 L 106.257812 76.101562 C 112.84375 81.910156 119.523438 87.816406 126.109375 93.625 Z M 204.246094 202.941406 L 124.074219 165.566406 L 122.914062 166.824219 L 139.375 193.066406 L 203.761719 204.394531 L 204.246094 202.84375 Z M 125.140625 135.550781 L 92.21875 120.347656 L 91.152344 121.703125 L 115.746094 155.011719 L 116.230469 155.398438 L 203.085938 194.421875 L 203.859375 193.066406 L 125.332031 135.746094 L 125.140625 135.648438 Z M 125.140625 135.550781 " clip-rule="evenodd"/></clipPath><linearGradient x1="38.596591" gradientTransform="matrix(9.682593, 0, 0, 9.682593, 10.981923, 57.218869)" y1="4.165129" x2="-1.274775" gradientUnits="userSpaceOnUse" y2="24.397879" id="942c3ae9db"><stop stop-opacity="1" stop-color="rgb(100%, 87.098694%, 34.899902%)" offset="0"/><stop stop-opacity="1" stop-color="rgb(100%, 87.098694%, 34.899902%)" offset="0.125"/><stop stop-opacity="1" stop-color="rgb(100%, 87.098694%, 34.899902%)" offset="0.1875"/><stop stop-opacity="1" stop-color="rgb(100%, 87.098694%, 34.899902%)" offset="0.21875"/><stop stop-opacity="1" stop-color="rgb(100%, 87.098694%, 34.899902%)" offset="0.234375"/><stop stop-opacity="1" stop-color="rgb(100%, 87.019348%, 34.872437%)" offset="0.242188"/><stop stop-opacity="1" stop-color="rgb(100%, 86.448669%, 34.681702%)" offset="0.246094"/><stop stop-opacity="1" stop-color="rgb(100%, 85.957336%, 34.516907%)" offset="0.25"/><stop stop-opacity="1" stop-color="rgb(100%, 85.464478%, 34.352112%)" offset="0.253906"/><stop stop-opacity="1" stop-color="rgb(100%, 84.971619%, 34.187317%)" offset="0.257812"/><stop stop-opacity="1" stop-color="rgb(100%, 84.47876%, 34.020996%)" offset="0.261719"/><stop stop-opacity="1" stop-color="rgb(100%, 83.987427%, 33.856201%)" offset="0.265625"/><stop stop-opacity="1" stop-color="rgb(100%, 83.494568%, 33.691406%)" offset="0.269531"/><stop stop-opacity="1" stop-color="rgb(100%, 83.003235%, 33.526611%)" offset="0.273438"/><stop stop-opacity="1" stop-color="rgb(100%, 82.510376%, 33.361816%)" offset="0.277344"/><stop stop-opacity="1" stop-color="rgb(100%, 82.017517%, 33.197021%)" offset="0.28125"/><stop stop-opacity="1" stop-color="rgb(100%, 81.524658%, 33.032227%)" offset="0.285156"/><stop stop-opacity="1" stop-color="rgb(100%, 81.033325%, 32.867432%)" offset="0.289062"/><stop stop-opacity="1" stop-color="rgb(100%, 80.540466%, 32.701111%)" offset="0.292969"/><stop stop-opacity="1" stop-color="rgb(100%, 80.049133%, 32.536316%)" offset="0.296875"/><stop stop-opacity="1" stop-color="rgb(100%, 79.556274%, 32.371521%)" offset="0.300781"/><stop stop-opacity="1" stop-color="rgb(100%, 79.063416%, 32.206726%)" offset="0.304688"/><stop stop-opacity="1" stop-color="rgb(100%, 78.570557%, 32.041931%)" offset="0.308594"/><stop stop-opacity="1" stop-color="rgb(100%, 78.079224%, 31.877136%)" offset="0.3125"/><stop stop-opacity="1" stop-color="rgb(100%, 77.586365%, 31.712341%)" offset="0.316406"/><stop stop-opacity="1" stop-color="rgb(100%, 77.093506%, 31.547546%)" offset="0.320312"/><stop stop-opacity="1" stop-color="rgb(100%, 76.600647%, 31.382751%)" offset="0.324219"/><stop stop-opacity="1" stop-color="rgb(100%, 76.109314%, 31.217957%)" offset="0.328125"/><stop stop-opacity="1" stop-color="rgb(100%, 75.616455%, 31.051636%)" offset="0.332031"/><stop stop-opacity="1" stop-color="rgb(100%, 75.125122%, 30.886841%)" offset="0.335938"/><stop stop-opacity="1" stop-color="rgb(100%, 74.632263%, 30.722046%)" offset="0.339844"/><stop stop-opacity="1" stop-color="rgb(100%, 74.139404%, 30.557251%)" offset="0.34375"/><stop stop-opacity="1" stop-color="rgb(100%, 73.646545%, 30.392456%)" offset="0.347656"/><stop stop-opacity="1" stop-color="rgb(100%, 73.155212%, 30.227661%)" offset="0.351563"/><stop stop-opacity="1" stop-color="rgb(100%, 72.662354%, 30.062866%)" offset="0.355469"/><stop stop-opacity="1" stop-color="rgb(100%, 72.169495%, 29.898071%)" offset="0.359375"/><stop stop-opacity="1" stop-color="rgb(100%, 71.676636%, 29.73175%)" offset="0.363281"/><stop stop-opacity="1" stop-color="rgb(100%, 71.185303%, 29.566956%)" offset="0.367188"/><stop stop-opacity="1" stop-color="rgb(100%, 70.692444%, 29.402161%)" offset="0.371094"/><stop stop-opacity="1" stop-color="rgb(100%, 70.201111%, 29.237366%)" offset="0.375"/><stop stop-opacity="1" stop-color="rgb(100%, 69.708252%, 29.072571%)" offset="0.378906"/><stop stop-opacity="1" stop-color="rgb(100%, 69.215393%, 28.907776%)" offset="0.382813"/><stop stop-opacity="1" stop-color="rgb(100%, 68.722534%, 28.742981%)" offset="0.386719"/><stop stop-opacity="1" stop-color="rgb(100%, 68.231201%, 28.578186%)" offset="0.390625"/><stop stop-opacity="1" stop-color="rgb(100%, 67.738342%, 28.411865%)" offset="0.394531"/><stop stop-opacity="1" stop-color="rgb(100%, 67.245483%, 28.24707%)" offset="0.398438"/><stop stop-opacity="1" stop-color="rgb(100%, 66.752625%, 28.082275%)" offset="0.402344"/><stop stop-opacity="1" stop-color="rgb(100%, 66.261292%, 27.91748%)" offset="0.40625"/><stop stop-opacity="1" stop-color="rgb(100%, 65.768433%, 27.752686%)" offset="0.410156"/><stop stop-opacity="1" stop-color="rgb(100%, 65.2771%, 27.587891%)" offset="0.414063"/><stop stop-opacity="1" stop-color="rgb(100%, 64.784241%, 27.423096%)" offset="0.417969"/><stop stop-opacity="1" stop-color="rgb(100%, 64.291382%, 27.258301%)" offset="0.421875"/><stop stop-opacity="1" stop-color="rgb(100%, 63.798523%, 27.093506%)" offset="0.425781"/><stop stop-opacity="1" stop-color="rgb(100%, 63.30719%, 26.928711%)" offset="0.429688"/><stop stop-opacity="1" stop-color="rgb(100%, 62.814331%, 26.76239%)" offset="0.433594"/><stop stop-opacity="1" stop-color="rgb(100%, 62.321472%, 26.597595%)" offset="0.4375"/><stop stop-opacity="1" stop-color="rgb(100%, 61.828613%, 26.4328%)" offset="0.441406"/><stop stop-opacity="1" stop-color="rgb(100%, 61.33728%, 26.268005%)" offset="0.445312"/><stop stop-opacity="1" stop-color="rgb(100%, 60.844421%, 26.10321%)" offset="0.449219"/><stop stop-opacity="1" stop-color="rgb(100%, 60.353088%, 25.938416%)" offset="0.453125"/><stop stop-opacity="1" stop-color="rgb(100%, 59.860229%, 25.773621%)" offset="0.457031"/><stop stop-opacity="1" stop-color="rgb(100%, 59.367371%, 25.608826%)" offset="0.460938"/><stop stop-opacity="1" stop-color="rgb(100%, 58.874512%, 25.442505%)" offset="0.464844"/><stop stop-opacity="1" stop-color="rgb(100%, 58.383179%, 25.27771%)" offset="0.46875"/><stop stop-opacity="1" stop-color="rgb(100%, 57.89032%, 25.112915%)" offset="0.472656"/><stop stop-opacity="1" stop-color="rgb(100%, 57.397461%, 24.94812%)" offset="0.476563"/><stop stop-opacity="1" stop-color="rgb(100%, 56.904602%, 24.783325%)" offset="0.480469"/><stop stop-opacity="1" stop-color="rgb(100%, 56.413269%, 24.61853%)" offset="0.484375"/><stop stop-opacity="1" stop-color="rgb(100%, 55.92041%, 24.453735%)" offset="0.488281"/><stop stop-opacity="1" stop-color="rgb(100%, 55.429077%, 24.28894%)" offset="0.492188"/><stop stop-opacity="1" stop-color="rgb(100%, 54.936218%, 24.124146%)" offset="0.496094"/><stop stop-opacity="1" stop-color="rgb(100%, 54.443359%, 23.959351%)" offset="0.5"/><stop stop-opacity="1" stop-color="rgb(100%, 53.9505%, 23.79303%)" offset="0.503906"/><stop stop-opacity="1" stop-color="rgb(100%, 53.459167%, 23.628235%)" offset="0.507812"/><stop stop-opacity="1" stop-color="rgb(100%, 52.966309%, 23.46344%)" offset="0.511719"/><stop stop-opacity="1" stop-color="rgb(100%, 52.474976%, 23.298645%)" offset="0.515625"/><stop stop-opacity="1" stop-color="rgb(100%, 51.982117%, 23.13385%)" offset="0.519531"/><stop stop-opacity="1" stop-color="rgb(100%, 51.489258%, 22.969055%)" offset="0.523438"/><stop stop-opacity="1" stop-color="rgb(100%, 50.996399%, 22.80426%)" offset="0.527344"/><stop stop-opacity="1" stop-color="rgb(100%, 50.505066%, 22.639465%)" offset="0.53125"/><stop stop-opacity="1" stop-color="rgb(100%, 50.012207%, 22.473145%)" offset="0.535156"/><stop stop-opacity="1" stop-color="rgb(100%, 49.519348%, 22.30835%)" offset="0.539062"/><stop stop-opacity="1" stop-color="rgb(100%, 49.026489%, 22.143555%)" offset="0.542969"/><stop stop-opacity="1" stop-color="rgb(100%, 48.535156%, 21.97876%)" offset="0.546875"/><stop stop-opacity="1" stop-color="rgb(100%, 48.042297%, 21.813965%)" offset="0.550781"/><stop stop-opacity="1" stop-color="rgb(100%, 47.550964%, 21.64917%)" offset="0.554688"/><stop stop-opacity="1" stop-color="rgb(100%, 47.058105%, 21.484375%)" offset="0.558594"/><stop stop-opacity="1" stop-color="rgb(100%, 46.565247%, 21.31958%)" offset="0.5625"/><stop stop-opacity="1" stop-color="rgb(100%, 46.072388%, 21.153259%)" offset="0.566406"/><stop stop-opacity="1" stop-color="rgb(100%, 45.581055%, 20.988464%)" offset="0.570313"/><stop stop-opacity="1" stop-color="rgb(100%, 45.088196%, 20.823669%)" offset="0.574219"/><stop stop-opacity="1" stop-color="rgb(100%, 44.595337%, 20.658875%)" offset="0.578125"/><stop stop-opacity="1" stop-color="rgb(100%, 44.102478%, 20.49408%)" offset="0.582031"/><stop stop-opacity="1" stop-color="rgb(100%, 43.611145%, 20.329285%)" offset="0.585938"/><stop stop-opacity="1" stop-color="rgb(100%, 43.118286%, 20.16449%)" offset="0.589844"/><stop stop-opacity="1" stop-color="rgb(100%, 42.626953%, 19.999695%)" offset="0.59375"/><stop stop-opacity="1" stop-color="rgb(100%, 42.134094%, 19.8349%)" offset="0.597656"/><stop stop-opacity="1" stop-color="rgb(100%, 41.641235%, 19.670105%)" offset="0.601562"/><stop stop-opacity="1" stop-color="rgb(100%, 41.148376%, 19.503784%)" offset="0.605469"/><stop stop-opacity="1" stop-color="rgb(100%, 40.657043%, 19.338989%)" offset="0.609375"/><stop stop-opacity="1" stop-color="rgb(100%, 40.164185%, 19.174194%)" offset="0.613281"/><stop stop-opacity="1" stop-color="rgb(100%, 39.671326%, 19.009399%)" offset="0.617188"/><stop stop-opacity="1" stop-color="rgb(100%, 39.178467%, 18.844604%)" offset="0.621094"/><stop stop-opacity="1" stop-color="rgb(100%, 38.687134%, 18.67981%)" offset="0.625"/><stop stop-opacity="1" stop-color="rgb(100%, 38.194275%, 18.515015%)" offset="0.628906"/><stop stop-opacity="1" stop-color="rgb(100%, 37.702942%, 18.35022%)" offset="0.632813"/><stop stop-opacity="1" stop-color="rgb(100%, 37.210083%, 18.183899%)" offset="0.636719"/><stop stop-opacity="1" stop-color="rgb(100%, 36.717224%, 18.019104%)" offset="0.640625"/><stop stop-opacity="1" stop-color="rgb(100%, 36.224365%, 17.854309%)" offset="0.644531"/><stop stop-opacity="1" stop-color="rgb(100%, 35.733032%, 17.689514%)" offset="0.648438"/><stop stop-opacity="1" stop-color="rgb(100%, 35.240173%, 17.524719%)" offset="0.652344"/><stop stop-opacity="1" stop-color="rgb(100%, 34.747314%, 17.359924%)" offset="0.65625"/><stop stop-opacity="1" stop-color="rgb(100%, 34.254456%, 17.195129%)" offset="0.660156"/><stop stop-opacity="1" stop-color="rgb(100%, 33.763123%, 17.030334%)" offset="0.664063"/><stop stop-opacity="1" stop-color="rgb(100%, 33.270264%, 16.86554%)" offset="0.667969"/><stop stop-opacity="1" stop-color="rgb(100%, 32.778931%, 16.700745%)" offset="0.671875"/><stop stop-opacity="1" stop-color="rgb(100%, 32.286072%, 16.534424%)" offset="0.675781"/><stop stop-opacity="1" stop-color="rgb(100%, 31.793213%, 16.369629%)" offset="0.679688"/><stop stop-opacity="1" stop-color="rgb(100%, 31.300354%, 16.204834%)" offset="0.683594"/><stop stop-opacity="1" stop-color="rgb(100%, 30.809021%, 16.040039%)" offset="0.6875"/><stop stop-opacity="1" stop-color="rgb(100%, 30.316162%, 15.875244%)" offset="0.691406"/><stop stop-opacity="1" stop-color="rgb(100%, 29.823303%, 15.710449%)" offset="0.695313"/><stop stop-opacity="1" stop-color="rgb(100%, 29.330444%, 15.545654%)" offset="0.699219"/><stop stop-opacity="1" stop-color="rgb(100%, 28.839111%, 15.380859%)" offset="0.703125"/><stop stop-opacity="1" stop-color="rgb(100%, 28.346252%, 15.214539%)" offset="0.707031"/><stop stop-opacity="1" stop-color="rgb(100%, 27.854919%, 15.049744%)" offset="0.710938"/><stop stop-opacity="1" stop-color="rgb(100%, 27.362061%, 14.884949%)" offset="0.714844"/><stop stop-opacity="1" stop-color="rgb(100%, 26.869202%, 14.720154%)" offset="0.71875"/><stop stop-opacity="1" stop-color="rgb(100%, 26.376343%, 14.555359%)" offset="0.722656"/><stop stop-opacity="1" stop-color="rgb(100%, 25.88501%, 14.390564%)" offset="0.726562"/><stop stop-opacity="1" stop-color="rgb(100%, 25.392151%, 14.225769%)" offset="0.730469"/><stop stop-opacity="1" stop-color="rgb(100%, 24.900818%, 14.060974%)" offset="0.734375"/><stop stop-opacity="1" stop-color="rgb(100%, 24.407959%, 13.894653%)" offset="0.738281"/><stop stop-opacity="1" stop-color="rgb(100%, 23.9151%, 13.729858%)" offset="0.742188"/><stop stop-opacity="1" stop-color="rgb(100%, 23.422241%, 13.565063%)" offset="0.746094"/><stop stop-opacity="1" stop-color="rgb(100%, 22.930908%, 13.400269%)" offset="0.75"/><stop stop-opacity="1" stop-color="rgb(100%, 22.438049%, 13.235474%)" offset="0.753906"/><stop stop-opacity="1" stop-color="rgb(100%, 21.94519%, 13.070679%)" offset="0.757813"/><stop stop-opacity="1" stop-color="rgb(100%, 21.452332%, 12.905884%)" offset="0.761719"/><stop stop-opacity="1" stop-color="rgb(100%, 20.960999%, 12.741089%)" offset="0.765625"/><stop stop-opacity="1" stop-color="rgb(100%, 20.46814%, 12.576294%)" offset="0.769531"/><stop stop-opacity="1" stop-color="rgb(100%, 19.976807%, 12.411499%)" offset="0.773438"/><stop stop-opacity="1" stop-color="rgb(100%, 19.483948%, 12.245178%)" offset="0.777344"/><stop stop-opacity="1" stop-color="rgb(100%, 18.991089%, 12.080383%)" offset="0.78125"/><stop stop-opacity="1" stop-color="rgb(100%, 18.49823%, 11.915588%)" offset="0.785156"/><stop stop-opacity="1" stop-color="rgb(100%, 18.006897%, 11.750793%)" offset="0.789063"/><stop stop-opacity="1" stop-color="rgb(100%, 17.514038%, 11.585999%)" offset="0.792969"/><stop stop-opacity="1" stop-color="rgb(100%, 17.021179%, 11.421204%)" offset="0.796875"/><stop stop-opacity="1" stop-color="rgb(100%, 16.52832%, 11.256409%)" offset="0.800781"/><stop stop-opacity="1" stop-color="rgb(100%, 16.036987%, 11.091614%)" offset="0.804688"/><stop stop-opacity="1" stop-color="rgb(100%, 15.544128%, 10.925293%)" offset="0.808594"/><stop stop-opacity="1" stop-color="rgb(100%, 15.052795%, 10.760498%)" offset="0.8125"/><stop stop-opacity="1" stop-color="rgb(100%, 14.559937%, 10.595703%)" offset="0.816406"/><stop stop-opacity="1" stop-color="rgb(100%, 14.067078%, 10.430908%)" offset="0.820312"/><stop stop-opacity="1" stop-color="rgb(100%, 13.574219%, 10.266113%)" offset="0.824219"/><stop stop-opacity="1" stop-color="rgb(100%, 13.082886%, 10.101318%)" offset="0.828125"/><stop stop-opacity="1" stop-color="rgb(100%, 12.590027%, 9.936523%)" offset="0.832031"/><stop stop-opacity="1" stop-color="rgb(100%, 12.097168%, 9.771729%)" offset="0.835938"/><stop stop-opacity="1" stop-color="rgb(100%, 11.604309%, 9.606934%)" offset="0.839844"/><stop stop-opacity="1" stop-color="rgb(100%, 11.112976%, 9.442139%)" offset="0.84375"/><stop stop-opacity="1" stop-color="rgb(100%, 10.620117%, 9.275818%)" offset="0.847656"/><stop stop-opacity="1" stop-color="rgb(100%, 10.128784%, 9.111023%)" offset="0.851562"/><stop stop-opacity="1" stop-color="rgb(100%, 9.635925%, 8.946228%)" offset="0.855469"/><stop stop-opacity="1" stop-color="rgb(100%, 9.143066%, 8.781433%)" offset="0.859375"/><stop stop-opacity="1" stop-color="rgb(100%, 8.87146%, 8.68988%)" offset="0.863281"/><stop stop-opacity="1" stop-color="rgb(100%, 8.599854%, 8.599854%)" offset="0.867188"/><stop stop-opacity="1" stop-color="rgb(100%, 8.599854%, 8.599854%)" offset="0.875"/><stop stop-opacity="1" stop-color="rgb(100%, 8.599854%, 8.599854%)" offset="1"/></linearGradient></defs><g clip-path="url(#b1a1a9a00a)"><g clip-path="url(#65d95136db)"><path fill="url(#942c3ae9db)" d="M 10.980469 57.21875 L 10.980469 317.777344 L 364.230469 317.777344 L 364.230469 57.21875 Z M 10.980469 57.21875 " fill-rule="nonzero"/></g></g></svg>